<mxfile host="app.diagrams.net" agent="Mozilla/5.0 (Windows NT 10.0; Win64; x64) AppleWebKit/537.36 (KHTML, like Gecko) Chrome/129.0.0.0 Safari/537.36" version="24.7.17">
  <diagram name="1 oldal" id="5TZ3HVSHar9nMw1OzH1a">
    <mxGraphModel dx="1434" dy="728" grid="0" gridSize="10" guides="1" tooltips="1" connect="1" arrows="1" fold="1" page="1" pageScale="1" pageWidth="827" pageHeight="1169" math="0" shadow="0">
      <root>
        <mxCell id="0" />
        <mxCell id="1" parent="0" />
        <mxCell id="g2Idjq9mp2vQE_2IkOI--3" value="" style="edgeStyle=orthogonalEdgeStyle;rounded=0;orthogonalLoop=1;jettySize=auto;html=1;" parent="1" source="g2Idjq9mp2vQE_2IkOI--1" target="g2Idjq9mp2vQE_2IkOI--2" edge="1">
          <mxGeometry relative="1" as="geometry" />
        </mxCell>
        <mxCell id="g2Idjq9mp2vQE_2IkOI--1" value="START" style="ellipse;whiteSpace=wrap;html=1;" parent="1" vertex="1">
          <mxGeometry x="421" y="675" width="120" height="80" as="geometry" />
        </mxCell>
        <mxCell id="g2Idjq9mp2vQE_2IkOI--5" value="" style="edgeStyle=orthogonalEdgeStyle;rounded=0;orthogonalLoop=1;jettySize=auto;html=1;" parent="1" source="g2Idjq9mp2vQE_2IkOI--2" target="g2Idjq9mp2vQE_2IkOI--4" edge="1">
          <mxGeometry relative="1" as="geometry" />
        </mxCell>
        <mxCell id="g2Idjq9mp2vQE_2IkOI--2" value="Be: A[], B[], unió[]" style="shape=parallelogram;perimeter=parallelogramPerimeter;whiteSpace=wrap;html=1;fixedSize=1;" parent="1" vertex="1">
          <mxGeometry x="271" y="612" width="120" height="60" as="geometry" />
        </mxCell>
        <mxCell id="g2Idjq9mp2vQE_2IkOI--7" value="" style="edgeStyle=orthogonalEdgeStyle;rounded=0;orthogonalLoop=1;jettySize=auto;html=1;" parent="1" source="g2Idjq9mp2vQE_2IkOI--4" target="g2Idjq9mp2vQE_2IkOI--6" edge="1">
          <mxGeometry relative="1" as="geometry" />
        </mxCell>
        <mxCell id="g2Idjq9mp2vQE_2IkOI--4" value="&lt;div&gt;i = 0&lt;br&gt;&lt;/div&gt;&lt;div&gt;j = 0&lt;br&gt;&lt;/div&gt;" style="whiteSpace=wrap;html=1;aspect=fixed;" parent="1" vertex="1">
          <mxGeometry x="291" y="491" width="80" height="80" as="geometry" />
        </mxCell>
        <mxCell id="m3mvCIad0vrln363fM8C-9" value="" style="edgeStyle=orthogonalEdgeStyle;rounded=0;orthogonalLoop=1;jettySize=auto;html=1;" edge="1" parent="1" source="g2Idjq9mp2vQE_2IkOI--6" target="g2Idjq9mp2vQE_2IkOI--8">
          <mxGeometry relative="1" as="geometry" />
        </mxCell>
        <mxCell id="m3mvCIad0vrln363fM8C-12" style="edgeStyle=orthogonalEdgeStyle;rounded=0;orthogonalLoop=1;jettySize=auto;html=1;entryX=0;entryY=0.5;entryDx=0;entryDy=0;" edge="1" parent="1" source="g2Idjq9mp2vQE_2IkOI--6" target="g2Idjq9mp2vQE_2IkOI--18">
          <mxGeometry relative="1" as="geometry">
            <Array as="points">
              <mxPoint x="331" y="116" />
            </Array>
          </mxGeometry>
        </mxCell>
        <mxCell id="g2Idjq9mp2vQE_2IkOI--6" value="i&amp;lt;A[]hossz" style="rhombus;whiteSpace=wrap;html=1;" parent="1" vertex="1">
          <mxGeometry x="291" y="212" width="80" height="80" as="geometry" />
        </mxCell>
        <mxCell id="m3mvCIad0vrln363fM8C-10" value="" style="edgeStyle=orthogonalEdgeStyle;rounded=0;orthogonalLoop=1;jettySize=auto;html=1;" edge="1" parent="1" source="g2Idjq9mp2vQE_2IkOI--8" target="g2Idjq9mp2vQE_2IkOI--10">
          <mxGeometry relative="1" as="geometry" />
        </mxCell>
        <mxCell id="g2Idjq9mp2vQE_2IkOI--8" value="unió.Add(A[i])" style="rounded=0;whiteSpace=wrap;html=1;" parent="1" vertex="1">
          <mxGeometry x="405" y="222.5" width="120" height="59" as="geometry" />
        </mxCell>
        <mxCell id="m3mvCIad0vrln363fM8C-11" style="edgeStyle=orthogonalEdgeStyle;rounded=0;orthogonalLoop=1;jettySize=auto;html=1;" edge="1" parent="1" source="g2Idjq9mp2vQE_2IkOI--10">
          <mxGeometry relative="1" as="geometry">
            <mxPoint x="331" y="299" as="targetPoint" />
          </mxGeometry>
        </mxCell>
        <mxCell id="g2Idjq9mp2vQE_2IkOI--10" value="i++" style="rounded=0;whiteSpace=wrap;html=1;" parent="1" vertex="1">
          <mxGeometry x="405" y="319" width="120" height="58" as="geometry" />
        </mxCell>
        <mxCell id="g2Idjq9mp2vQE_2IkOI--14" value="I" style="text;html=1;align=center;verticalAlign=middle;whiteSpace=wrap;rounded=0;" parent="1" vertex="1">
          <mxGeometry x="354" y="218" width="60" height="30" as="geometry" />
        </mxCell>
        <mxCell id="g2Idjq9mp2vQE_2IkOI--17" value="H" style="text;html=1;align=center;verticalAlign=middle;whiteSpace=wrap;rounded=0;" parent="1" vertex="1">
          <mxGeometry x="320" y="164" width="60" height="30" as="geometry" />
        </mxCell>
        <mxCell id="g2Idjq9mp2vQE_2IkOI--23" value="" style="edgeStyle=orthogonalEdgeStyle;rounded=0;orthogonalLoop=1;jettySize=auto;html=1;entryX=0.5;entryY=0;entryDx=0;entryDy=0;" parent="1" source="g2Idjq9mp2vQE_2IkOI--18" target="g2Idjq9mp2vQE_2IkOI--21" edge="1">
          <mxGeometry relative="1" as="geometry" />
        </mxCell>
        <mxCell id="g2Idjq9mp2vQE_2IkOI--44" value="" style="edgeStyle=orthogonalEdgeStyle;rounded=0;orthogonalLoop=1;jettySize=auto;html=1;" parent="1" source="g2Idjq9mp2vQE_2IkOI--18" target="g2Idjq9mp2vQE_2IkOI--42" edge="1">
          <mxGeometry relative="1" as="geometry" />
        </mxCell>
        <mxCell id="g2Idjq9mp2vQE_2IkOI--18" value="j&amp;lt;B[]hossz" style="rhombus;whiteSpace=wrap;html=1;" parent="1" vertex="1">
          <mxGeometry x="672" y="76" width="80" height="80" as="geometry" />
        </mxCell>
        <mxCell id="g2Idjq9mp2vQE_2IkOI--24" value="" style="edgeStyle=orthogonalEdgeStyle;rounded=0;orthogonalLoop=1;jettySize=auto;html=1;" parent="1" source="g2Idjq9mp2vQE_2IkOI--21" target="g2Idjq9mp2vQE_2IkOI--22" edge="1">
          <mxGeometry relative="1" as="geometry" />
        </mxCell>
        <mxCell id="g2Idjq9mp2vQE_2IkOI--21" value="i = 0" style="rounded=0;whiteSpace=wrap;html=1;" parent="1" vertex="1">
          <mxGeometry x="652" y="191" width="120" height="60" as="geometry" />
        </mxCell>
        <mxCell id="g2Idjq9mp2vQE_2IkOI--26" value="" style="edgeStyle=orthogonalEdgeStyle;rounded=0;orthogonalLoop=1;jettySize=auto;html=1;" parent="1" source="g2Idjq9mp2vQE_2IkOI--22" target="g2Idjq9mp2vQE_2IkOI--25" edge="1">
          <mxGeometry relative="1" as="geometry" />
        </mxCell>
        <mxCell id="g2Idjq9mp2vQE_2IkOI--30" value="" style="edgeStyle=orthogonalEdgeStyle;rounded=0;orthogonalLoop=1;jettySize=auto;html=1;" parent="1" source="g2Idjq9mp2vQE_2IkOI--22" target="g2Idjq9mp2vQE_2IkOI--29" edge="1">
          <mxGeometry relative="1" as="geometry" />
        </mxCell>
        <mxCell id="g2Idjq9mp2vQE_2IkOI--22" value="i&amp;lt;B[]hossz és B[j] != A[i]" style="rhombus;whiteSpace=wrap;html=1;" parent="1" vertex="1">
          <mxGeometry x="632" y="299" width="160" height="156" as="geometry" />
        </mxCell>
        <mxCell id="g2Idjq9mp2vQE_2IkOI--25" value="i++" style="rounded=0;whiteSpace=wrap;html=1;" parent="1" vertex="1">
          <mxGeometry x="852" y="347" width="120" height="60" as="geometry" />
        </mxCell>
        <mxCell id="g2Idjq9mp2vQE_2IkOI--28" style="edgeStyle=orthogonalEdgeStyle;rounded=0;orthogonalLoop=1;jettySize=auto;html=1;entryX=0.731;entryY=0.212;entryDx=0;entryDy=0;entryPerimeter=0;" parent="1" source="g2Idjq9mp2vQE_2IkOI--25" target="g2Idjq9mp2vQE_2IkOI--22" edge="1">
          <mxGeometry relative="1" as="geometry">
            <Array as="points">
              <mxPoint x="904" y="332" />
            </Array>
          </mxGeometry>
        </mxCell>
        <mxCell id="g2Idjq9mp2vQE_2IkOI--32" value="" style="edgeStyle=orthogonalEdgeStyle;rounded=0;orthogonalLoop=1;jettySize=auto;html=1;" parent="1" source="g2Idjq9mp2vQE_2IkOI--29" target="g2Idjq9mp2vQE_2IkOI--31" edge="1">
          <mxGeometry relative="1" as="geometry" />
        </mxCell>
        <mxCell id="0PIKVYjfH-3vk6iXKDxF-13" style="edgeStyle=orthogonalEdgeStyle;rounded=0;orthogonalLoop=1;jettySize=auto;html=1;" parent="1" source="g2Idjq9mp2vQE_2IkOI--29" edge="1">
          <mxGeometry relative="1" as="geometry">
            <mxPoint x="576" y="544.75" as="targetPoint" />
          </mxGeometry>
        </mxCell>
        <mxCell id="g2Idjq9mp2vQE_2IkOI--29" value="i&amp;gt;=A[]hossz" style="rhombus;whiteSpace=wrap;html=1;" parent="1" vertex="1">
          <mxGeometry x="658" y="493" width="108" height="103.5" as="geometry" />
        </mxCell>
        <mxCell id="g2Idjq9mp2vQE_2IkOI--36" value="" style="edgeStyle=orthogonalEdgeStyle;rounded=0;orthogonalLoop=1;jettySize=auto;html=1;entryX=0.5;entryY=1;entryDx=0;entryDy=0;" parent="1" edge="1">
          <mxGeometry relative="1" as="geometry">
            <mxPoint x="710.5" y="687" as="sourcePoint" />
            <mxPoint x="574" y="186" as="targetPoint" />
            <Array as="points">
              <mxPoint x="710.5" y="755" />
              <mxPoint x="574.5" y="755" />
            </Array>
          </mxGeometry>
        </mxCell>
        <mxCell id="g2Idjq9mp2vQE_2IkOI--31" value="unió.Add(B[j&lt;span style=&quot;background-color: initial;&quot;&gt;])&lt;/span&gt;" style="rounded=0;whiteSpace=wrap;html=1;" parent="1" vertex="1">
          <mxGeometry x="652" y="627" width="120" height="60" as="geometry" />
        </mxCell>
        <mxCell id="g2Idjq9mp2vQE_2IkOI--34" value="I" style="text;html=1;align=center;verticalAlign=middle;whiteSpace=wrap;rounded=0;" parent="1" vertex="1">
          <mxGeometry x="785" y="377" width="60" height="30" as="geometry" />
        </mxCell>
        <mxCell id="g2Idjq9mp2vQE_2IkOI--35" value="H" style="text;html=1;align=center;verticalAlign=middle;whiteSpace=wrap;rounded=0;" parent="1" vertex="1">
          <mxGeometry x="702" y="458" width="60" height="30" as="geometry" />
        </mxCell>
        <mxCell id="g2Idjq9mp2vQE_2IkOI--37" value="I" style="text;html=1;align=center;verticalAlign=middle;whiteSpace=wrap;rounded=0;" parent="1" vertex="1">
          <mxGeometry x="699" y="596.5" width="60" height="30" as="geometry" />
        </mxCell>
        <mxCell id="g2Idjq9mp2vQE_2IkOI--40" value="H" style="text;html=1;align=center;verticalAlign=middle;whiteSpace=wrap;rounded=0;" parent="1" vertex="1">
          <mxGeometry x="596" y="519" width="60" height="30" as="geometry" />
        </mxCell>
        <mxCell id="g2Idjq9mp2vQE_2IkOI--47" value="" style="edgeStyle=orthogonalEdgeStyle;rounded=0;orthogonalLoop=1;jettySize=auto;html=1;" parent="1" source="g2Idjq9mp2vQE_2IkOI--42" target="g2Idjq9mp2vQE_2IkOI--46" edge="1">
          <mxGeometry relative="1" as="geometry" />
        </mxCell>
        <mxCell id="g2Idjq9mp2vQE_2IkOI--42" value="Ki: unió[]" style="rounded=0;whiteSpace=wrap;html=1;" parent="1" vertex="1">
          <mxGeometry x="798" y="86" width="120" height="60" as="geometry" />
        </mxCell>
        <mxCell id="g2Idjq9mp2vQE_2IkOI--43" value="I" style="text;html=1;align=center;verticalAlign=middle;whiteSpace=wrap;rounded=0;" parent="1" vertex="1">
          <mxGeometry x="699" y="156" width="60" height="30" as="geometry" />
        </mxCell>
        <mxCell id="g2Idjq9mp2vQE_2IkOI--45" value="H" style="text;html=1;align=center;verticalAlign=middle;whiteSpace=wrap;rounded=0;" parent="1" vertex="1">
          <mxGeometry x="742" y="78" width="60" height="57" as="geometry" />
        </mxCell>
        <mxCell id="g2Idjq9mp2vQE_2IkOI--46" value="END" style="ellipse;whiteSpace=wrap;html=1;" parent="1" vertex="1">
          <mxGeometry x="959" y="76" width="120" height="80" as="geometry" />
        </mxCell>
        <mxCell id="0PIKVYjfH-3vk6iXKDxF-2" style="edgeStyle=orthogonalEdgeStyle;rounded=0;orthogonalLoop=1;jettySize=auto;html=1;entryX=0;entryY=1;entryDx=0;entryDy=0;" parent="1" source="0PIKVYjfH-3vk6iXKDxF-1" target="g2Idjq9mp2vQE_2IkOI--18" edge="1">
          <mxGeometry relative="1" as="geometry" />
        </mxCell>
        <mxCell id="0PIKVYjfH-3vk6iXKDxF-1" value="j++" style="rounded=0;whiteSpace=wrap;html=1;" parent="1" vertex="1">
          <mxGeometry x="525" y="140" width="101" height="46" as="geometry" />
        </mxCell>
      </root>
    </mxGraphModel>
  </diagram>
</mxfile>
